<?xml version="1.0" standalone="no"?>
<!DOCTYPE svg PUBLIC "-//W3C//DTD SVG 1.1//EN" "http://www.w3.org/Graphics/SVG/1.1/DTD/svg11.dtd" >
<!--
2013-9-30: Created.
-->
<svg>
<metadata>
Created by iconfont
</metadata>
<defs>

<font id="iconfont" horiz-adv-x="1024" >
  <font-face
    font-family="iconfont"
    font-weight="500"
    font-stretch="normal"
    units-per-em="1024"
    ascent="896"
    descent="-128"
  />
    <missing-glyph />
    
    <glyph glyph-name="favorfill" unicode="&#58955;" d="M957.216 491.68c-3.808 11.36-13.632 19.68-25.504 21.504l-270.336 41.728-120.8 258.624C535.328 824.768 524.032 831.968 511.648 832c0 0-0.032 0-0.064 0-12.384 0-23.648-7.136-28.928-18.336l-121.856-258.016-270.72-40.8c-11.872-1.792-21.728-10.048-25.568-21.408-3.84-11.36-0.992-23.936 7.36-32.512l196.448-202.08L221.44-25.952c-1.984-12.096 3.104-24.256 13.12-31.328 9.984-7.072 23.168-7.808 33.888-1.92l241.824 133.024 241.312-133.856C756.416-62.656 761.76-64 767.104-64c0.256 0 0.48 0 0.64 0 17.696 0 32 14.304 32 32 0 3.968-0.704 7.776-2.016 11.296l-44.896 278.688 196.928 201.248C958.08 467.776 960.992 480.32 957.216 491.68z"  horiz-adv-x="1024" />

    
    <glyph glyph-name="discover" unicode="&#59006;" d="M544 608c0 52.928-43.072 96-96 96s-96-43.072-96-96 43.072-96 96-96S544 555.072 544 608zM416 608c0 17.632 14.368 32 32 32s32-14.368 32-32-14.368-32-32-32S416 590.368 416 608zM304 448C259.904 448 224 412.096 224 368 224 323.872 259.904 288 304 288s80 35.872 80 80C384 412.096 348.096 448 304 448zM304 352C295.168 352 288 359.168 288 368S295.168 384 304 384s16-7.168 16-16S312.832 352 304 352zM640 160m-64 0a2 2 0 1 0 128 0 2 2 0 1 0-128 0ZM887.84 627.328c39.744 60.672 64.256 113.184 64.224 148.96 0 22.976-9.312 36.928-17.12 44.576-38.08 37.376-110.016 3.2-160.768-25.664-15.328-8.736-20.704-28.288-11.968-43.648 8.736-15.36 28.32-20.704 43.648-11.968 49.408 28.16 73.248 33.088 82.496 33.696-1.504-41.376-95.328-202.432-330.208-433.504-226.368-222.72-398.656-324.672-442.24-325.376 0.96 11.36 8.768 44.448 58.528 118.688 1.312 1.888 2.4 3.968 3.232 6.144l2.304 5.92c0.256 0.64 0.288 1.344 0.512 2.016 8.8 10.24 10.816 25.088 3.392 37.248C147.328 244.384 128 313.408 128 384 128 595.744 300.256 768 512 768c59.296 0 116.096-13.12 168.864-39.04 15.936-7.776 35.04-1.184 42.816 14.656 7.776 15.84 1.248 35.008-14.624 42.816C647.424 816.672 581.12 832 512 832 264.96 832 64 631.04 64 384c0-76.064 19.488-150.496 56.064-216.64-0.192-0.576-0.64-1.056-0.8-1.632C51.168 63.392 35.2 0.32 68.928-32.768c11.008-10.784 25.632-15.584 43.072-15.584 39.328 0 92.864 24.928 150.08 60.896C336.096-37.408 421.952-64 512-64c247.04 0 448 200.96 448 448C960 471.136 934.912 554.752 887.84 627.328zM512 0c-68.288 0-133.728 17.888-191.84 51.552 128.288 92.256 258.432 218.56 282.848 242.624 89.152 87.712 178.56 187.04 244.64 275.968C879.2 513.408 896 449.888 896 384 896 172.256 723.744 0 512 0z"  horiz-adv-x="1024" />

    
    <glyph glyph-name="discoverfill" unicode="&#59066;" d="M928.768 808.768c-0.032 7.456-1.216 13.696-2.848 19.328-31.328 8.288-72.128-1.248-106.624-17.984-7.072-3.424-23.84-13.632-48.672-28.736-10.272-6.272-19.328-11.776-23.328-14.048-0.384-0.224-0.608-0.64-0.96-0.864C678.56 807.744 599.296 832 514.272 832c-247.04 0-448-200.96-448-448 0-82.816 22.976-160.192 62.304-226.784-46.464-71.616-69.504-123.328-63.488-158.368 1.248-7.168 13.6-8.32 20.384-8.32 138.432 0 454.848 303.776 494.208 342.496C753.504 504 928.864 713.024 928.768 808.768zM306.272 285.312c-44.096 0-80 35.872-80 80 0 44.096 35.904 80 80 80s80-35.904 80-80C386.272 321.184 350.368 285.312 306.272 285.312zM447.072 509.312c-52.928 0-96 43.072-96 96s43.072 96 96 96 96-43.072 96-96S500 509.312 447.072 509.312zM895.904 617.44c-67.104-99.648-172.608-219.296-277.856-322.784-28.64-28.192-202.272-196.448-348.096-286.112 0.128 0.096 0.224 0.16 0.352 0.224C340.576-37.088 424.288-64 514.272-64c247.04 0 448 200.96 448 448C962.24 469.6 937.728 549.344 895.904 617.44zM640.032 96c-35.296 0-64 28.704-64 64s28.704 64 64 64 64-28.704 64-64S675.328 96 640.032 96z"  horiz-adv-x="1024" />

    
    <glyph glyph-name="appreciatefill" unicode="&#59107;" d="M873.6 480h-188.8c12.8 44.8 28.8 115.2 19.2 188.8-6.4 60.8-41.6 105.6-92.8 124.8-38.4 12.8-76.8 6.4-99.2-16-25.6-25.6-38.4-76.8-51.2-128-9.6-35.2-16-70.4-28.8-89.6-32-54.4-102.4-76.8-115.2-80h-92.8c-19.2 0-32-12.8-32-32v-448c0-19.2 12.8-32 32-32h547.2c124.8 0 188.8 390.4 188.8 412.8 0 57.6-44.8 99.2-86.4 99.2zM96 480c-19.2 0-32-12.8-32-32v-448c0-19.2 12.8-32 32-32s32 12.8 32 32v448c0 19.2-12.8 32-32 32z"  horiz-adv-x="1024" />

    
    <glyph glyph-name="rechargefill" unicode="&#59116;" d="M512 832C264.96 832 64 631.04 64 384s200.96-448 448-448 448 200.96 448 448S759.04 832 512 832zM640.768 320c17.696 0 32-14.304 32-32s-14.304-32-32-32L544 256l0-95.136c0-17.696-14.304-32-32-32s-32 14.304-32 32L480 256l-95.104 0c-17.696 0-32 14.304-32 32s14.304 32 32 32L480 320l0 64-95.104 0c-17.696 0-32 14.304-32 32s14.304 32 32 32L480 448l0 19.776-118.432 118.624c-12.544 12.48-12.064 32.736 0.416 45.248 12.512 12.576 32.704 12.512 45.216 0.064l107.584-107.36 101.632 106.784c12.288 12.832 32.416 13.216 45.152 1.12 12.8-12.192 13.056-32.48 0.864-45.248L544 463.136 544 448l96.768 0c17.696 0 32-14.304 32-32s-14.304-32-32-32L544 384l0-64L640.768 320z"  horiz-adv-x="1024" />

    
    <glyph glyph-name="share" unicode="&#59448;" d="M864 192c-45.152 0-85.92-18.752-115.008-48.832L317.984 358.688C319.296 366.912 320 375.392 320 384s-0.704 17.088-2.016 25.312l431.008 215.488C778.08 594.752 818.848 576 864 576c88.352 0 160 71.648 160 160S952.352 896 864 896s-160-71.648-160-160c0-8.608 0.704-17.088 2.016-25.312L275.008 495.168C245.92 525.248 205.152 544 160 544c-88.352 0-160-71.648-160-160 0-88.352 71.648-160 160-160 45.152 0 85.92 18.752 115.008 48.832l431.008-215.488C704.704 49.088 704 40.608 704 32c0-88.352 71.648-160 160-160s160 71.648 160 160C1024 120.352 952.352 192 864 192z"  horiz-adv-x="1024" />

    
    <glyph glyph-name="phonecall" unicode="&#58899;" d="M853.333333 0C452.757333 0 128 324.757333 128 725.333333 128 748.906667 147.114667 768 170.666667 768L341.333333 768C364.906667 768 384 748.906667 384 725.333333L384 554.666667C384 542.869333 379.242667 532.202667 371.52 524.501333L282.602667 435.413333C344.106667 314.624 442.858667 215.914667 563.712 154.453333L652.501333 243.498667C660.224 251.242667 670.890667 256 682.666667 256L853.333333 256C876.906667 256 896 236.906667 896 213.333333L896 42.666667C896 19.093333 876.906667 0 853.333333 0ZM525.397333 516.138667 525.397333 603.157333C639.317333 603.072 731.925333 510.421333 731.925333 396.458667 731.925333 396.266667 731.882667 396.074667 731.882667 395.882667L644.864 395.882667C644.864 396.074667 644.928 396.266667 644.928 396.458667 644.928 462.4 591.296 516.053333 525.397333 516.138667ZM808.085333 395.882667C808.085333 396.074667 808.106667 396.266667 808.106667 396.458667 808.106667 552.384 681.28 679.253333 525.397333 679.338667L525.397333 766.357333C729.301333 766.272 895.125333 600.405333 895.125333 396.458667 895.125333 396.266667 895.104 396.074667 895.104 395.882667L808.085333 395.882667Z"  horiz-adv-x="1024" />

    
    <glyph glyph-name="triangledownfill" unicode="&#59291;" d="M957.056 557.376c-5.216 11.328-16.544 18.624-29.056 18.624h-832c-12.512 0-23.84-7.296-29.088-18.624-5.216-11.36-3.328-24.704 4.768-34.208l416-485.344c6.080-7.104 14.944-11.2 24.288-11.2s18.208 4.096 24.288 11.2l416 485.344c8.192 9.504 10.016 22.848 4.8 34.208z"  horiz-adv-x="1024" />

    
    <glyph glyph-name="triangleupfill" unicode="&#59292;" d="M952.32 180.8l-416 485.376c-12.16 14.176-36.448 14.176-48.608 0l-416-485.376c-8.128-9.472-9.984-22.848-4.768-34.176 5.216-11.328 16.544-18.624 29.056-18.624h832c12.512 0 23.84 7.296 29.056 18.624s3.392 24.704-4.736 34.176z"  horiz-adv-x="1024" />

    
    <glyph glyph-name="i-right" unicode="&#58880;" d="M644.896 381.344c-4.647 3.465-7.707 5.211-10.102 7.614-111.882 111.777-223.68 223.642-335.584 335.395-11.498 11.482-17.601 24.432-14.060 40.893 6.549 30.444 42.724 43.056 66.702 23.206 2.638-2.179 5.006-4.691 7.43-7.116 122.147-122.131 244.29-244.268 366.434-366.411 22.218-22.218 22.236-44.944 0.033-67.143-122.749-122.755-245.548-245.451-368.185-368.316-12.166-12.191-26.062-17.589-42.734-13.327-28.957 7.395-40.247 42.511-21.462 65.828 2.323 2.881 5.046 5.457 7.668 8.083 111.214 111.228 222.435 222.459 333.706 333.634 2.407 2.404 5.469 4.166 10.148 7.66z"  horiz-adv-x="1024" />

    
    <glyph glyph-name="likefill" unicode="&#58912;" d="M780.8 691.2c-83.2 44.8-179.2 19.2-243.2-44.8L512 620.8 486.4 646.4c-64 64-166.4 83.2-243.2 44.8C108.8 620.8 89.6 454.4 185.6 358.4l32-32 153.6-153.6 102.4-102.4c25.6-25.6 57.6-25.6 83.2 0l102.4 102.4 153.6 153.6 32 32C934.4 454.4 915.2 620.8 780.8 691.2z"  horiz-adv-x="1024" />

    
    <glyph glyph-name="xihuan" unicode="&#58934;" d="M512-32c-28.928 0-57.92 12.672-86.624 41.376L106.272 332C68.064 379.648 32 424.672 32 512c0 141.152 114.848 256 256 256 53.088 0 104-16.096 147.296-46.592 14.432-10.176 17.92-30.144 7.712-44.608-10.176-14.432-30.08-17.92-44.608-7.712C366.016 691.936 327.808 704 288 704c-105.888 0-192-86.112-192-192 0-61.408 20.288-90.112 59.168-138.688l315.584-318.816C486.72 38.528 499.616 32.192 512 32c12.704-0.192 24.928 6.176 41.376 22.624l316.672 319.904C896.064 402.72 928 450.304 928 512c0 105.888-86.112 192-192 192-48.064 0-94.08-17.856-129.536-50.272l-134.08-134.112c-12.512-12.512-32.736-12.512-45.248 0s-12.512 32.736 0 45.248l135.104 135.136C610.56 744.192 671.904 768 736 768c141.152 0 256-114.848 256-256 0-82.368-41.152-144.288-75.68-181.696l-317.568-320.8C569.952-19.328 540.96-32 512-32z"  horiz-adv-x="1024" />

    
    <glyph glyph-name="xihuan1" unicode="&#58935;" d="M736 768c-65.952 0-128.576-25.024-176.384-70.464-4.576-4.32-28.672-28.736-47.328-47.68L464.96 696.96C417.12 742.784 354.272 768 288 768c-141.152 0-256-114.848-256-256 0-82.432 41.184-144.288 76.48-182.496l316.896-320.128C450.464-15.68 478.304-32 512-32c33.696 0 61.568 16.32 86.752 41.504l316.736 320 2.208 2.464C955.904 379.616 992 424.608 992 512 992 653.152 877.152 768 736 768z"  horiz-adv-x="1024" />

    
    <glyph glyph-name="jinakangbaoicons12" unicode="&#58985;" d="M1000.125 485.037l-226.362 34.052-10.803-57.070 112.217-16.88-179.213-172.917 40.833-245.585-219.762 117.012-220.991-114.735 43.351 245.172-177.349 174.723 246.514 34.514 111.344 222.683 109.067-223.856 74.773-11.217 10.803 57.070-46.731 7.004-147.205 302.189-150.304-300.611-332.862-46.611 239.449-235.893-58.475-330.934 298.277 154.865 296.703-157.968-55.085 331.57z"  horiz-adv-x="1024" />

    
    <glyph glyph-name="fold" unicode="&#58958;" d="M887.328 278.848 533.952 628.992c-0.512 0.512-1.216 0.672-1.76 1.152-0.128 0.128-0.16 0.32-0.288 0.448-12.576 12.416-32.832 12.352-45.28-0.192L136.512 277.056c-12.448-12.576-12.352-32.8 0.192-45.248 6.24-6.176 14.4-9.28 22.528-9.28 8.224 0 16.48 3.168 22.72 9.472l327.84 330.816 332.48-329.408c6.24-6.176 14.368-9.28 22.528-9.28 8.256 0 16.48 3.168 22.72 9.472C899.968 246.144 899.872 266.4 887.328 278.848z"  horiz-adv-x="1024" />

    
    <glyph glyph-name="message" unicode="&#58913;" d="M832.9 768h-641.8c-69.9 0-127.1-57.2-127.1-127.1v-385.7c0-70 57.2-127.2 127.1-127.2h0.9v-128l128 128h512.9c69.9 0 127.1 57.2 127.1 127.1v385.8c0 69.9-57.2 127.1-127.1 127.1zM256 383.8c-35.3 0-64 28.7-64 64s28.7 64 64 64 64-28.7 64-64-28.6-64-64-64zM512 383.8c-35.3 0-64 28.7-64 64s28.7 64 64 64 64-28.7 64-64-28.7-64-64-64zM768.1 383.8c-35.3 0-64 28.7-64 64s28.7 64 64 64 64-28.7 64-64-28.6-64-64-64z"  horiz-adv-x="1024" />

    
    <glyph glyph-name="edit_light" unicode="&#59358;" d="M832 618.666667c-12.8 0-21.333333-8.533333-21.333333-21.333334v-554.666666c0-23.466667-19.2-42.666667-42.666667-42.666667H192c-23.466667 0-42.666667 19.2-42.666667 42.666667V682.666667c0 23.466667 19.2 42.666667 42.666667 42.666666h490.666667c12.8 0 21.333333 8.533333 21.333333 21.333334s-8.533333 21.333333-21.333333 21.333333H192c-46.933333 0-85.333333-38.4-85.333333-85.333333v-640c0-46.933333 38.4-85.333333 85.333333-85.333334h576c46.933333 0 85.333333 38.4 85.333333 85.333334V597.333333c0 12.8-8.533333 21.333333-21.333333 21.333334zM910.933333 825.6c-8.533333 8.533333-21.333333 8.533333-29.866666 0L563.2 507.733333c-8.533333-8.533333-8.533333-21.333333 0-29.866666 4.266667-4.266667 10.666667-6.4 14.933333-6.4s10.666667 2.133333 14.933334 6.4L910.933333 793.6c8.533333 8.533333 8.533333 23.466667 0 32zM448 512h-192c-12.8 0-21.333333-8.533333-21.333333-21.333333s8.533333-21.333333 21.333333-21.333334h192c12.8 0 21.333333 8.533333 21.333333 21.333334s-8.533333 21.333333-21.333333 21.333333zM704 341.333333H256c-12.8 0-21.333333-8.533333-21.333333-21.333333s8.533333-21.333333 21.333333-21.333333h448c12.8 0 21.333333 8.533333 21.333333 21.333333s-8.533333 21.333333-21.333333 21.333333zM704 172.8H256c-12.8 0-21.333333-8.533333-21.333333-21.333333s8.533333-21.333333 21.333333-21.333334h448c12.8 0 21.333333 8.533333 21.333333 21.333334s-8.533333 21.333333-21.333333 21.333333z"  horiz-adv-x="1024" />

    
    <glyph glyph-name="comment_light" unicode="&#59360;" d="M514.133333-42.666667c-6.4 0-10.666667 2.133333-14.933333 6.4l-104.533333 106.666667c-8.533333 8.533333-8.533333 21.333333 0 29.866667 8.533333 8.533333 21.333333 8.533333 29.866666 0l89.6-91.733334 91.733334 91.733334c4.266667 4.266667 8.533333 6.4 14.933333 6.4h192c34.133333 0 64 27.733333 64 64V640c0 34.133333-27.733333 64-64 64h-597.333333c-34.133333 0-64-27.733333-64-64v-469.333333c0-36.266667 27.733333-64 64-64h108.8c12.8 0 21.333333-8.533333 21.333333-21.333334s-8.533333-21.333333-21.333333-21.333333h-108.8c-59.733333 0-106.666667 46.933333-106.666667 106.666667V640c0 59.733333 46.933333 106.666667 106.666667 106.666667h597.333333c57.6 0 106.666667-46.933333 106.666667-106.666667v-471.466667c0-57.6-46.933333-106.666667-106.666667-106.666666h-183.466667l-100.266666-100.266667c-4.266667-2.133333-10.666667-4.266667-14.933334-4.266667zM309.333333 362.666667c-29.866667 0-53.333333 23.466667-53.333333 53.333333s23.466667 53.333333 53.333333 53.333333 53.333333-23.466667 53.333334-53.333333-23.466667-53.333333-53.333334-53.333333zM512 362.666667c-29.866667 0-53.333333 23.466667-53.333333 53.333333S482.133333 469.333333 512 469.333333s53.333333-23.466667 53.333333-53.333333S541.866667 362.666667 512 362.666667zM714.666667 362.666667c-29.866667 0-53.333333 23.466667-53.333334 53.333333s23.466667 53.333333 53.333334 53.333333 53.333333-23.466667 53.333333-53.333333-23.466667-53.333333-53.333333-53.333333z"  horiz-adv-x="1024" />

    
    <glyph glyph-name="appreciate_light" unicode="&#59361;" d="M859.733333 469.333333h-183.466666c14.933333 40.533333 34.133333 117.333333 23.466666 200.533334-4.266667 55.466667-38.4 98.133333-85.333333 113.066666-34.133333 10.666667-70.4 6.4-89.6-12.8-23.466667-23.466667-34.133333-70.4-46.933333-121.6-8.533333-36.266667-17.066667-72.533333-29.866667-91.733333-36.266667-59.733333-117.333333-85.333333-123.733333-87.466667H256c-12.8 0-21.333333-8.533333-21.333333-21.333333v-450.133333c0-6.4 2.133333-10.666667 6.4-14.933334 4.266667-4.266667 8.533333-6.4 14.933333-6.4l76.8 2.133334c57.6 0 315.733333 2.133333 392.533333 2.133333 202.666667 0 213.333333 398.933333 213.333334 403.2 0 46.933333-42.666667 85.333333-78.933334 85.333333zM725.333333 23.466667c-85.333333 0-403.2-2.133333-403.2-2.133334H277.333333V426.666667H337.066667c4.266667 2.133333 104.533333 29.866667 149.333333 106.666666 14.933333 25.6 23.466667 61.866667 34.133333 102.4s21.333333 87.466667 36.266667 104.533334c4.266667 4.266667 23.466667 8.533333 44.8 2.133333 14.933333-4.266667 51.2-23.466667 57.6-78.933333 12.8-106.666667-32-204.8-32-206.933334-2.133333-6.4-2.133333-14.933333 2.133333-21.333333 4.266667-6.4 10.666667-10.666667 17.066667-10.666667h213.333333c12.8 0 36.266667-17.066667 36.266667-42.666666 0-70.4-29.866667-358.4-170.666667-358.4zM172.8 426.666667c12.8 0 21.333333 8.533333 21.333333 21.333333s-8.533333 21.333333-21.333333 21.333333h-64c-12.8 0-21.333333-8.533333-21.333333-21.333333v-448c0-12.8 8.533333-21.333333 21.333333-21.333333h64c12.8 0 21.333333 8.533333 21.333333 21.333333s-8.533333 21.333333-21.333333 21.333333h-42.666667V426.666667h42.666667z"  horiz-adv-x="1024" />

    
    <glyph glyph-name="favor_light" unicode="&#59362;" d="M736-21.333333c-6.4 0-14.933333 2.133333-21.333333 6.4L512 98.133333l-202.666667-110.933333c-14.933333-8.533333-32-8.533333-44.8 2.133333-12.8 10.666667-21.333333 25.6-17.066666 42.666667l38.4 238.933333-166.4 172.8c-10.666667 10.666667-14.933333 27.733333-10.666667 42.666667 4.266667 14.933333 17.066667 25.6 34.133333 27.733333l151.466667 19.2c12.8 2.133333 23.466667-6.4 23.466667-19.2 2.133333-12.8-6.4-23.466667-19.2-23.466666l-149.333334-19.2 174.933334-179.2c4.266667-4.266667 6.4-10.666667 6.4-19.2l-40.533334-249.6 213.333334 117.333333c6.4 4.266667 14.933333 4.266667 21.333333 0l213.333333-117.333333-40.533333 251.733333c-2.133333 6.4 2.133333 12.8 6.4 19.2l170.666667 174.933333-238.933334 36.266667c-6.4 2.133333-12.8 6.4-17.066666 12.8L512 746.666667l-110.933333-226.133334c-4.266667-10.666667-17.066667-14.933333-27.733334-10.666666-10.666667 4.266667-14.933333 17.066667-10.666666 27.733333l110.933333 226.133333C482.133333 778.666667 497.066667 789.333333 512 789.333333c17.066667 0 32-8.533333 38.4-25.6l100.266667-215.466666L881.066667 512c17.066667-2.133333 29.866667-12.8 34.133333-29.866667 4.266667-14.933333 2.133333-32-10.666667-42.666666l-166.4-170.666667 38.4-241.066667c2.133333-17.066667-4.266667-32-17.066666-40.533333-6.4-4.266667-14.933333-8.533333-23.466667-8.533333z"  horiz-adv-x="1024" />

    
    <glyph glyph-name="appreciate_fill_light" unicode="&#59363;" d="M859.733333 469.333333h-183.466666c14.933333 40.533333 34.133333 117.333333 23.466666 200.533334-4.266667 55.466667-38.4 98.133333-85.333333 113.066666-34.133333 10.666667-70.4 6.4-89.6-12.8-23.466667-23.466667-34.133333-70.4-46.933333-121.6-8.533333-36.266667-17.066667-72.533333-29.866667-91.733333-34.133333-59.733333-123.733333-83.2-134.4-87.466667H256c-12.8 0-21.333333-8.533333-21.333333-21.333333v-448c0-12.8 8.533333-21.333333 21.333333-21.333333h68.266667c2.133333 0 6.4 0 8.533333 2.133333h394.666667c202.666667 0 213.333333 398.933333 213.333333 403.2-2.133333 46.933333-44.8 85.333333-81.066667 85.333333zM170.666667 471.466667H106.666667c-12.8 0-21.333333-8.533333-21.333334-21.333334v-448c0-12.8 8.533333-21.333333 21.333334-21.333333h64c12.8 0 21.333333 8.533333 21.333333 21.333333v448c0 10.666667-10.666667 21.333333-21.333333 21.333334z"  horiz-adv-x="1024" />

    
    <glyph glyph-name="appreciate_fill_light1" unicode="&#58932;" d="M859.733 469.333H676.267c14.933 40.534 34.133 117.334 23.466 200.534-4.266 55.466-38.4 98.133-85.333 113.066-34.133 10.667-70.4 6.4-89.6-12.8-23.467-23.466-34.133-70.4-46.933-121.6C469.333 612.267 460.8 576 448 556.8c-34.133-59.733-123.733-83.2-134.4-87.467H256c-12.8 0-21.333-8.533-21.333-21.333v-448c0-12.8 8.533-21.333 21.333-21.333h68.267c2.133 0 6.4 0 8.533 2.133h394.667C930.133-19.2 940.8 379.733 940.8 384c-2.133 46.933-44.8 85.333-81.067 85.333z m-689.066 2.134h-64c-12.8 0-21.334-8.534-21.334-21.334v-448c0-12.8 8.534-21.333 21.334-21.333h64c12.8 0 21.333 8.533 21.333 21.333v448c0 10.667-10.667 21.334-21.333 21.334z"  horiz-adv-x="1024" />

    
    <glyph glyph-name="appreciate_fill_light2" unicode="&#58633;" d="M859.733 469.333h-183.467c14.9333 40.5333 34.1333 117.333 23.4667 200.533-4.26667 55.4667-38.4 98.1333-85.3333 113.067-34.1333 10.6667-70.4 6.4-89.6-12.8-23.4667-23.4667-34.1333-70.4-46.9333-121.6-8.53333-36.2667-17.0667-72.5333-29.8667-91.7333-34.1333-59.7333-123.733-83.2-134.4-87.4667H256c-12.8 0-21.3333-8.53333-21.3333-21.3333v-448c0-12.8 8.53333-21.3333 21.3333-21.3333h68.2667c2.13333 0 6.4 0 8.53333 2.13333h394.667c202.667 0 213.333 398.933 213.333 403.2-2.13333 46.9333-44.8 85.3333-81.0667 85.3333ZM170.667 471.467H106.667c-12.8 0-21.3333-8.53333-21.3333-21.3333v-448c0-12.8 8.53333-21.3333 21.3333-21.3333h64c12.8 0 21.3333 8.53333 21.3333 21.3333v448c0 10.6667-10.6667 21.3333-21.3333 21.3333Z"  horiz-adv-x="1024" />

    
    <glyph glyph-name="location-fill" unicode="&#59496;" d="M512 569c-29.9 0-58-11.6-79.2-32.8C411.7 515 400 486.9 400 457c0-29.9 11.7-58 32.8-79.2C454 356.7 482.1 345 512 345c29.9 0 58 11.7 79.2 32.8C612.4 399 624 427.1 624 457c0 29.9-11.6 58-32.8 79.2S541.9 569 512 569zM854.6 606.9c-18.8 43.4-45.7 82.3-79.9 115.7-34.2 33.4-73.9 59.5-118.2 77.8C610.7 819.4 562.1 829 512 829c-50.1 0-98.7-9.6-144.5-28.5-44.3-18.3-84-44.5-118.2-77.8-34.2-33.4-61.1-72.4-79.9-115.7-19.5-45-29.4-92.8-29.4-142 0-70.6 16.9-140.9 50.1-208.7 26.7-54.5 64-107.6 111-158.1 80.3-86.2 164.5-138.9 188.4-153 6.9-4.1 14.7-6.1 22.4-6.1 7.8 0 15.5 2 22.4 6.1 23.9 14.1 108.1 66.8 188.4 153 47 50.4 84.3 103.6 111 158.1C867.1 324 884 394.2 884 464.9c0 49.2-9.9 97-29.4 142zM512 281c-97.2 0-176 78.8-176 176s78.8 176 176 176 176-78.8 176-176-78.8-176-176-176z"  horiz-adv-x="1024" />

    
    <glyph glyph-name="phone-call" unicode="&#59367;" d="M755.498667 371.498667a42.624 42.624 0 0 1-60.330667 0l-68.010667-68.010667c-31.530667 9.386667-90.368 30.72-127.658666 68.010667s-58.624 96.128-68.010667 127.658666l68.010667 68.010667a42.624 42.624 0 0 1 0 60.330667l-170.666667 170.666666a42.624 42.624 0 0 1-60.330667 0l-128-128a42.496 42.496 0 0 1-12.416-27.690666c-0.64-10.666667-12.885333-263.338667 183.082667-459.306667 170.154667-170.154667 383.573333-183.424 444.928-183.424 9.344 0 14.378667 0.341333 14.378667 0.341333 10.368 0.64 20.394667 5.034667 27.690666 12.416l128 128a42.624 42.624 0 0 1 0 60.330667l-170.666666 170.666667z m-5.376-286.378667c-59.776 0.896-236.714667 16.512-378.624 158.378667-142.592 142.634667-157.226667 325.205333-158.293334 378.709333L298.666667 707.669333 409.002667 597.333333 353.834667 542.165333a42.666667 42.666667 0 0 1-11.605334-38.912c1.024-4.906667 26.069333-121.258667 96.896-192.085333s187.178667-95.872 192.085334-96.896a42.368 42.368 0 0 1 38.912 11.562667L725.333333 281.002667 835.669333 170.666667l-85.546666-85.546667zM596.906667 810.666667v-85.333334C745.514667 725.333333 853.333333 617.685333 853.333333 469.333333h85.333334c0 194.602667-146.901333 341.333333-341.76 341.333334zM682.666667 469.333333h85.333333c0 108.458667-62.208 170.666667-170.666667 170.666667v-85.333333c61.397333 0 85.333333-23.936 85.333334-85.333334z"  horiz-adv-x="1024" />

    
    <glyph glyph-name="wodetijiao" unicode="&#59091;" d="M711.5008 200.0128l-268.4672 83.0208L711.5008 593.408l-351.488-310.3744L153.6 365.312 814.72 716.8l-103.2192-516.7872z m-268.4672-124.1344v145.0752l82.9952-41.1136-82.9952-103.9616z"  horiz-adv-x="1024" />

    
    <glyph glyph-name="unfold" unicode="&#58911;" d="M890.336 565.088c-12.576 12.416-32.8 12.352-45.248-0.192l-327.84-330.848-332.416 329.44c-12.576 12.448-32.8 12.352-45.28-0.192-12.448-12.576-12.352-32.832 0.192-45.28l353.312-350.112c0.544-0.544 1.248-0.672 1.792-1.184 0.128-0.128 0.16-0.288 0.288-0.416a31.972 31.972 0 0 1 22.528-9.28c8.224 0 16.48 3.168 22.72 9.472l350.112 353.312c12.48 12.576 12.384 32.832-0.16 45.28z"  horiz-adv-x="1024" />

    


  </font>
</defs>
</svg>
